<svg width="243" height="144" viewBox="0 0 243 144" fill="none" xmlns="http://www.w3.org/2000/svg">
<rect width="243" height="144" fill="black"/>
<path d="M88 88.6895C86.7507 89.8659 85.4278 90.9394 84.0315 91.9099C82.6352 92.8511 81.1837 93.6746 79.6772 94.3805C77.105 95.6157 74.3307 96.5275 71.3543 97.1157C68.378 97.7333 65.2546 98.0274 61.9843 97.998C58.6772 97.9686 55.6273 97.5715 52.8346 96.8069C50.0787 96.0128 47.5984 94.9246 45.3937 93.5422C43.189 92.1893 41.2598 90.5865 39.6063 88.7336C37.9528 86.8807 36.5748 84.866 35.4724 82.6896C34.3333 80.5426 33.4698 78.2927 32.8819 75.9398C32.3307 73.5576 32.0367 71.1606 32 68.7489V61.2932C32.0367 58.9109 32.294 56.5434 32.7717 54.1905C33.2861 51.8082 34.0577 49.5289 35.0866 47.3525C36.1155 45.1761 37.4016 43.1614 38.9449 41.3085C40.4882 39.4262 42.3438 37.7939 44.5118 36.4116C46.643 35.0587 49.0682 33.9852 51.7874 33.1911C54.5066 32.397 57.5564 32 60.937 32C64.685 32 68.1391 32.4706 71.2992 33.4117C74.4593 34.3235 77.2152 35.6322 79.5669 37.3381C81.9186 39.0733 83.811 41.1615 85.2441 43.6026C86.6772 46.0143 87.5591 48.7201 87.8898 51.72H77.8031C77.3989 49.8671 76.7743 48.1613 75.9291 46.6025C75.084 45.0143 73.9816 43.6614 72.622 42.5438C71.2257 41.4262 69.5722 40.5586 67.6614 39.9409C65.7507 39.2939 63.5276 38.9704 60.9921 38.9704C58.5669 38.9704 56.4173 39.3086 54.5433 39.9851C52.6693 40.6321 51.0341 41.5144 49.6378 42.632C48.2415 43.7496 47.084 45.0584 46.1654 46.5584C45.2467 48.0289 44.4934 49.5877 43.9055 51.2347C43.3176 52.8817 42.895 54.5581 42.6378 56.264C42.3806 57.9698 42.252 59.6168 42.252 61.205V68.7489C42.2887 70.3665 42.4541 72.0429 42.748 73.7781C43.0787 75.484 43.5748 77.1604 44.2362 78.8074C44.8976 80.4544 45.7428 82.0132 46.7717 83.4837C47.8005 84.9543 49.0499 86.2484 50.5197 87.366C51.9528 88.4836 53.6247 89.3806 55.5354 90.0571C57.4462 90.7041 59.6142 91.0423 62.0394 91.0717C63.4357 91.1011 64.8871 91.057 66.3937 90.9394C67.937 90.8217 69.4252 90.5865 70.8583 90.2335C72.2913 89.8806 73.6325 89.41 74.8819 88.8218C76.1312 88.2042 77.1785 87.4101 78.0236 86.4395L78.1339 72.0135H61.8189V65.1313H87.8346L88 88.6895Z" fill="white"/>
<path d="M88 68H62V65.1729H81.6155L82.823 65.1659L81.7793 64.4685L66.2432 54.1843L67.137 51L88 65.1729V68Z" fill="white"/>
<path d="M94.7402 62.0742H113.102V92.6875H124.822V98H94.7402V92.6875H106.959V67.4199H94.7402V62.0742ZM106.162 52.6445C106.162 52.1133 106.24 51.6152 106.395 51.1504C106.572 50.6855 106.837 50.2871 107.191 49.9551C107.479 49.6673 107.844 49.446 108.287 49.291C108.752 49.1139 109.272 49.0254 109.848 49.0254C110.423 49.0254 110.932 49.1139 111.375 49.291C111.818 49.446 112.183 49.6673 112.471 49.9551C112.825 50.265 113.09 50.6523 113.268 51.1172C113.445 51.582 113.533 52.0911 113.533 52.6445C113.533 53.6406 113.223 54.4707 112.604 55.1348C111.984 55.7988 111.065 56.1309 109.848 56.1309C108.608 56.1309 107.678 55.7988 107.059 55.1348C106.461 54.4707 106.162 53.6406 106.162 52.6445ZM149.16 53.375V62.0742H162.84V66.8223H149.16V86.3457C149.16 87.7402 149.337 88.8913 149.691 89.7988C150.046 90.7064 150.533 91.4258 151.152 91.957C151.772 92.5104 152.48 92.8978 153.277 93.1191C154.096 93.3405 154.96 93.4512 155.867 93.4512C156.531 93.4512 157.217 93.418 157.926 93.3516C158.634 93.263 159.331 93.1634 160.018 93.0527C160.682 92.9421 161.301 92.8314 161.877 92.7207C162.475 92.5879 162.962 92.4772 163.338 92.3887L164.201 96.7383C163.692 97.0482 163.072 97.3249 162.342 97.5684C161.611 97.7897 160.814 97.9779 159.951 98.1328C159.088 98.3099 158.169 98.4427 157.195 98.5312C156.243 98.6198 155.292 98.6641 154.34 98.6641C152.746 98.6641 151.252 98.4427 149.857 98C148.485 97.5352 147.29 96.8047 146.271 95.8086C145.253 94.8346 144.445 93.5729 143.848 92.0234C143.272 90.4518 142.984 88.5592 142.984 86.3457V66.8223H133.555V62.0742H142.984V53.375H149.16ZM187.709 98L172.934 62.0742H179.242L189.535 89.168L190.1 91.3926L190.697 89.168L200.758 62.0742H207.033L192.391 98H187.709Z" fill="white"/>
</svg>
